<svg id="SvgjsSvg1053" width="288" height="288" xmlns="http://www.w3.org/2000/svg" version="1.1" xmlns:xlink="http://www.w3.org/1999/xlink" xmlns:svgjs="http://svgjs.com/svgjs"><defs id="SvgjsDefs1054"></defs><g id="SvgjsG1055" transform="matrix(1,0,0,1,0,0)"><svg xmlns="http://www.w3.org/2000/svg" viewBox="0 0 64 64" width="288" height="288"><path fill="#692fce" d="m63.32 26.07-6.71-4.99c-.09-.07-.16-.13-.22-.16L33.01 3.52c-.3-.22-.65-.33-1.01-.33-.37 0-.72.12-1.02.33L.68 26.08a1.711 1.711 0 0 0 1.03 3.07c.36 0 .71-.12 1.01-.33l6.77-5.04v37.04h3.58v-35.8c0-.53.43-.95.95-.95h35.95c.53 0 .95.42.95.95v35.8h3.6V23.78l6.77 5.04c.29.21.64.32 1.01.32a1.7 1.7 0 0 0 1.36-.68c.56-.75.41-1.82-.34-2.39z" class="color282f63 svgShape"></path><path fill="#692fce" d="M14.97 60.81h34.06V25.96H14.97v34.85zm3.89-17.33c0-1.01.82-1.84 1.85-1.84h.04l2.63-7.5a2.558 2.558 0 0 1 2.4-1.69h14.28c1.12 0 2.12.75 2.43 1.83l2.17 7.37c1.01 0 1.84.82 1.84 1.84v6.36c0 1.01-.82 1.84-1.84 1.84h-.03v1.87c0 1.31-1.07 2.38-2.38 2.38h-1.39a2.38 2.38 0 0 1-2.38-2.38v-1.87H26.87v1.87a2.38 2.38 0 0 1-2.38 2.38H23.1c-1.31 0-2.37-1.07-2.37-2.38v-1.87h-.03c-1.02 0-1.85-.82-1.85-1.84v-6.37z" class="color282f63 svgShape"></path><path fill="#692fce" d="M40.37 53.55c0 .27.22.48.48.48h1.39c.27 0 .48-.22.48-.48v-1.87h-2.36v1.87zm-17.74 0c0 .27.21.48.47.48h1.39c.27 0 .48-.22.48-.48v-1.87h-2.35v1.87zM40.66 34.8a.645.645 0 0 0-.62-.46H25.77c-.27 0-.51.17-.61.43l-2.41 6.87h19.92l-2.01-6.84zM21.38 49.84h.61l3.66-.01h.54l13.11-.04h.25l4.11-.01h.94v-6.31h-.96l-22.19.06h-.73l.05 6.31h.61zm19.99-4.48c.71 0 1.3.59 1.3 1.3 0 .71-.59 1.3-1.3 1.3-.71 0-1.3-.59-1.3-1.3.01-.71.59-1.3 1.3-1.3zm-11.3.35h4.69c.52 0 .95.43.95.95s-.43.95-.95.95h-4.69a.95.95 0 1 1 0-1.9zm-6.1-.35c.72 0 1.3.59 1.3 1.3 0 .71-.58 1.3-1.3 1.3-.71 0-1.29-.59-1.29-1.3 0-.71.58-1.3 1.29-1.3z" class="color282f63 svgShape"></path></svg></g></svg>